<svg width="414" height="896" viewBox="0 0 414 896" fill="none" xmlns="http://www.w3.org/2000/svg">
<g clip-path="url(#clip0_5_8)">
<rect width="414" height="896" fill="white"/>
<circle cx="305.5" cy="60.5" r="33.5" fill="#EDF0FF"/>
<path d="M343 84C343 95.6198 333.8 105 322.5 105C311.2 105 302 95.6198 302 84C302 72.3802 311.2 63 322.5 63C333.8 63 343 72.3802 343 84Z" stroke="#FFB4B4" stroke-width="2"/>
<path d="M94.5611 773.794C90.7976 763.147 70.3322 752.851 57.0639 755.39C41.8727 761.102 17.6052 773.414 32.8349 804.893C41.6804 814.624 65.4863 831.802 80.7159 817.586C99.753 799.816 98.5993 785.218 94.5611 773.794Z" fill="#EDF0FF"/>
<path d="M432.806 583.798C436.258 577.764 432.811 564.025 426.276 558.809C417.485 553.961 401.953 547.494 393.401 567.26C392.426 575.314 394.007 593.38 406.784 594.839C422.754 596.662 429.102 590.272 432.806 583.798Z" fill="#FFE4E4" fill-opacity="0.58"/>
<path d="M-7 78.0321V-3H172.099C175.881 11.6267 167.064 18.0222 158.587 18.0222C143.762 18.0222 129.764 22.1708 129.764 40.1963C129.764 56.0349 119.309 70.7395 101.507 82.2407C63.4724 106.814 11.6392 90.5136 -7 78.0321Z" fill="#FFCEC8"/>
<path d="M285.981 845.98C237.829 866.731 239.5 889 251.5 896.5L414.736 896.5L414.736 745.385C385.651 753.281 397.605 771.311 385.68 804.742C368.127 853.955 346.171 820.041 285.981 845.98Z" fill="#FBBEBE"/>
<path d="M17.0269 94C16.3603 75.1667 27.8269 35.4 79.0269 27C143.027 16.5 184.527 40 207.527 9" stroke="white"/>
</g>
<defs>
<clipPath id="clip0_5_8">
<rect width="414" height="896" fill="white"/>
</clipPath>
</defs>
</svg>
